Coordinates
version=1
nRows=22
nColumns=24
inDegrees=yes

Units are S.I. units (second, meters, Newtons, ...)
Angles are in degrees.

endheader
time	pelvis_tilt	pelvis_list	pelvis_rotation	pelvis_tx	pelvis_ty	pelvis_tz	hip_flexion_r	hip_adduction_r	hip_rotation_r	knee_angle_r	ankle_angle_r	subtalar_angle_r	mtp_angle_r	hip_flexion_l	hip_adduction_l	hip_rotation_l	knee_angle_l	ankle_angle_l	subtalar_angle_l	mtp_angle_l	lumbar_extension	lumbar_bending	lumbar_rotation
      5.06000000	      3.24931269	     -5.85378954	     -5.52906495	     -0.82083262	      0.92850306	      0.21198633	    -10.60504248	      9.21419568	     -3.92843202	    -30.06061447	     13.29627451	     11.03400964	      0.00000000	     20.31496723	     -3.28460068	     -2.92994694	     -5.18338106	      1.44277472	    -11.76152604	      0.00000000	    -18.38521792	      3.73193951	      8.82827311
      5.07000000	      3.44141087	     -5.57373062	     -5.13706964	     -0.80471936	      0.92843386	      0.21104684	    -10.76578277	      8.48019650	     -5.19207439	    -31.45690392	     10.66368762	     11.14625586	      0.00000000	     19.93526768	     -2.64295780	     -1.80069768	     -6.47634508	      0.43143820	    -12.48613882	      0.00000000	    -18.14310250	      3.30587814	      8.48841759
      5.08000000	      3.53480030	     -5.14807606	     -4.85477904	     -0.78866028	      0.92857294	      0.21028283	    -10.69977850	      7.57419588	     -6.29405189	    -32.92501036	      7.56810584	     11.05993133	      0.00000000	     19.63571449	     -1.89514728	     -0.59296091	     -7.71511740	     -0.87148905	    -13.11806099	      0.00000000	    -17.76861240	      2.66282586	      8.27684715
      5.09000000	      3.54748367	     -4.63051284	     -4.62841320	     -0.77288197	      0.92895375	      0.20966915	    -10.37674767	      6.59041447	     -7.18645402	    -34.50651057	      3.84151594	     10.61015261	      0.00000000	     19.52372556	     -1.09535674	      0.41802195	     -9.11696645	     -1.75071375	    -13.12551108	      0.00000000	    -17.34768897	      1.86095086	      8.15627770
      5.10000000	      3.50826867	     -4.05180786	     -4.44939861	     -0.75752826	      0.92958389	      0.20914731	     -9.77561676	      5.55461951	     -7.88068200	    -36.27209905	     -0.49482209	      9.74882492	      0.00000000	     19.56990685	     -0.25488109	      1.33474318	    -10.69243520	     -2.35708504	    -12.97543344	      0.00000000	    -16.95224631	      0.95274564	      8.12745106
      5.11000000	      3.44090463	     -3.48594454	     -4.27030852	     -0.74266210	      0.93042762	      0.20872413	     -8.92927074	      4.58981446	     -8.32294749	    -38.19800589	     -5.40593296	      8.43548003	      0.00000000	     19.77786678	      0.55169862	      2.00552509	    -12.51760749	     -2.40389345	    -12.57741762	      0.00000000	    -16.63210113	      0.01295173	      8.17911729
      5.12000000	      3.36053709	     -3.00666352	     -4.08860131	     -0.72835037	      0.93142249	      0.20844243	     -7.84643627	      3.78237990	     -8.53190973	    -40.30701540	    -10.63972513	      6.74986167	      0.00000000	     20.11699283	      1.20245356	      2.08363563	    -14.56881112	     -1.61210949	    -11.43039343	      0.00000000	    -16.43227177	     -0.87126248	      8.33448705
      5.13000000	      3.30494793	     -2.64986250	     -3.84496336	     -0.71453607	      0.93250967	      0.20815988	     -6.59797574	      3.16663330	     -8.62705635	    -42.57624739	    -15.75185916	      4.87583876	      0.00000000	     20.41806873	      1.71754897	      2.07789983	    -16.61852463	     -0.31694122	    -10.27576243	      0.00000000	    -16.39084340	     -1.62925069	      8.51012147
      5.14000000	      3.28613340	     -2.40025227	     -3.58106589	     -0.70119091	      0.93368333	      0.20789677	     -5.21658851	      2.71136665	     -8.63876160	    -44.98762722	    -20.26070448	      2.94697681	      0.00000000	     20.56325183	      2.10304551	      1.99654253	    -18.45683925	      1.17147166	     -9.29433450	      0.00000000	    -16.50780568	     -2.26727369	      8.73498190
      5.15000000	      3.29871331	     -2.21159756	     -3.31683740	     -0.68825464	      0.93492801	      0.20762132	     -3.73003312	      2.34734170	     -8.63783753	    -47.49342164	    -23.74147578	      1.03315836	      0.00000000	     20.48146580	      2.41729628	      1.92657196	    -19.92669286	      2.68164682	     -8.55203576	      0.00000000	    -16.74955249	     -2.82302921	      8.99166222
      5.16000000	      3.32987627	     -2.03494582	     -3.07786602	     -0.67566013	      0.93624337	      0.20730498	     -2.15779106	      2.00973831	     -8.65019724	    -50.03682783	    -25.98236959	     -0.87655965	      0.00000000	     20.13766199	      2.72869922	      1.95911552	    -20.92520053	      3.96267115	     -8.25784028	      0.00000000	    -17.05720853	     -3.33607814	      9.26365693
      5.17000000	      3.36222675	     -1.83420658	     -2.85464771	     -0.66332348	      0.93762442	      0.20693374	     -0.53431233	      1.64087671	     -8.75304082	    -52.52253896	    -26.83216758	     -2.81417797	      0.00000000	     19.57341117	      3.06239426	      1.99041932	    -21.48999496	      5.18395263	     -7.97198367	      0.00000000	    -17.37773141	     -3.83820732	      9.53562475
      5.18000000	      3.39268251	     -1.60465305	     -2.63041005	     -0.65116504	      0.93911095	      0.20646300	      1.09604447	      1.23443687	     -8.95349659	    -54.85042315	    -26.46546402	     -4.78074706	      0.00000000	     18.80658304	      3.44360962	      2.10928525	    -21.64820781	      6.16674787	     -7.84155092	      0.00000000	    -17.67813230	     -4.31650997	      9.76300200
      5.19000000	      3.42161678	     -1.37002110	     -2.37532650	     -0.63912560	      0.94073060	      0.20586817	      2.69232393	      0.81846941	     -9.25548373	    -56.93383246	    -25.15718057	     -6.72002040	      0.00000000	     17.87699676	      3.85804984	      2.37442807	    -21.47931711	      6.96050079	     -7.88608555	      0.00000000	    -17.94237415	     -4.73417020	      9.90695269
      5.20000000	      3.40464428	     -1.16387102	     -2.06652355	     -0.62717523	      0.94242659	      0.20518480	      4.28226588	      0.44912809	     -9.63316104	    -58.71617060	    -23.27237113	     -8.66675184	      0.00000000	     16.89272454	      4.25499931	      2.75439596	    -21.10066803	      7.59381332	     -8.00623828	      0.00000000	    -18.11496532	     -5.05217128	      9.95712364
      5.21000000	      3.36462364	     -1.00471978	     -1.64893321	     -0.61528006	      0.94422615	      0.20437030	      5.82028281	      0.13338935	    -10.12910276	    -60.15914850	    -21.10626934	    -10.46022610	      0.00000000	     15.87755434	      4.60882651	      3.21050010	    -20.60180441	      8.14977278	     -8.12504452	      0.00000000	    -18.22782104	     -5.24763810	      9.88071063
      5.22000000	      3.19524428	     -0.89337286	     -1.11462804	     -0.60348669	      0.94591121	      0.20340673	      7.44948192	     -0.14509573	    -10.73378923	    -61.31796915	    -18.68860106	    -11.70538213	      0.00000000	     14.98989311	      4.92674817	      3.86427632	    -20.06243539	      8.42794407	     -8.40117058	      0.00000000	    -18.16296091	     -5.31652180	      9.74099614
      5.23000000	      3.04298346	     -0.84709262	     -0.46877759	     -0.59175006	      0.94769765	      0.20237914	      8.98417970	     -0.34631913	    -11.38373974	    -62.13926150	    -16.44671837	    -12.60490473	      0.00000000	     14.08069760	      5.15234513	      4.52420030	    -19.50592557	      8.77884889	     -8.49087368	      0.00000000	    -18.11634563	     -5.26584376	      9.45603701
      5.24000000	      2.83701573	     -0.86611158	      0.29043587	     -0.58010230	      0.94941057	      0.20127138	     10.51626854	     -0.49777905	    -12.10467419	    -62.66350877	    -14.43190294	    -13.04676106	      0.00000000	     13.26145039	      5.28337309	      5.18805231	    -18.99120588	      9.14502847	     -8.36759905	      0.00000000	    -18.00609137	     -5.09869372	      9.12824159
      5.25000000	      2.60689600	     -0.92703561	      1.06717045	     -0.56854892	      0.95104189	      0.20020423	     12.03807755	     -0.60143002	    -12.76040657	    -62.93075810	    -12.53002388	    -12.90633997	      0.00000000	     12.48897023	      5.32817567	      5.77380082	    -18.49414488	      9.54880604	     -8.13577199	      0.00000000	    -17.87714405	     -4.87043272	      8.75671445
      5.26000000	      2.35824811	     -1.04375660	      1.87173069	     -0.55708704	      0.95257356	      0.19913231	     13.53169306	     -0.65843818	    -13.38627262	    -62.93069217	    -10.84637484	    -12.28899078	      0.00000000	     11.75803852	      5.28893220	      6.36941415	    -18.02011094	      9.96560990	     -7.76483634	      0.00000000	    -17.73940362	     -4.56133902	      8.41967155
      5.27000000	      2.13077953	     -1.16785019	      2.61847030	     -0.54568884	      0.95400405	      0.19818201	     14.96885772	     -0.70169314	    -13.89798803	    -62.70219283	     -9.18439892	    -11.22427292	      0.00000000	     11.01132477	      5.19917659	      6.84356050	    -17.54183955	     10.41529413	     -7.38091200	      0.00000000	    -17.63244763	     -4.26377959	      8.14683308
